# xmcd CD database file
# Copyright (C) 1993-1998 Ti Kan
#
# Track frame offsets:
#  150
#  14060
#  28590
#  46865
#  60952
#  75887
#  89837
#  107375
#  124625
#  134547
#  150645
#  169100
#  186160
#  199435
#  212095
#  228855
#
# Disc length: 3319 seconds
#
# Revision: 1
# Processed by: cddbd v1.4b41PL1 Copyright (c) Steve Scherf et al.
# Submitted via: CDWizzard Release:4.35
#
DISCID=ce0cf510
DTITLE=K.C. and The Sunshine Band - The Best Of K.C. and The Sunshine Band
DYEAR=1900
DGENRE=
TTITLE0=Sound Your Funky Horn
TTITLE1=Get Down Tonight
TTITLE2=I'm Your Boogie Man
TTITLE3=(Shake Shake Shake) Shake Your Booty
TTITLE4=Queen Of Clubs
TTITLE5=That's The Way I Like It
TTITLE6=Keep It Comin' Love
TTITLE7=Please Don't Go
TTITLE8=Boogie Shoes
TTITLE9=Let's Go Rock And Roll
TTITLE10=Give It Up
TTITLE11=Do You Wanna Go Party
TTITLE12=I Like To Do It
TTITLE13=Shotgun Shuffle
TTITLE14=Wrap Your Arms Around Me
TTITLE15=All I Want
EXTD=
EXTT0=
EXTT1=
EXTT2=
EXTT3=
EXTT4=
EXTT5=
EXTT6=
EXTT7=
EXTT8=
EXTT9=
EXTT10=
EXTT11=
EXTT12=
EXTT13=
EXTT14=
EXTT15=
PLAYORDER=
